<svg width="1065" height="34" viewBox="0 0 1065 34" fill="none" xmlns="http://www.w3.org/2000/svg">
<path d="M1033.8 0C1018.15 0 1018.15 14 1002.61 14C987.065 14 986.957 0 971.413 0C955.87 0 955.761 14 940.217 14C924.565 14 924.565 0 908.913 0C893.261 0 893.261 14 877.717 14C862.065 14 862.065 0 846.522 0C830.87 0 830.87 14 815.326 14C799.783 14 799.348 0 783.804 0C768.152 0 768.152 14 752.609 14C737.065 14 736.848 0 721.304 0C705.652 0 705.652 14 690.109 14C674.456 14 674.456 0 658.804 0C643.152 0 643.152 14 627.609 14C611.956 14 611.957 0 596.413 0C580.87 0 580.652 14 565 14C549.348 14 549.348 0 533.804 0C518.152 0 518.152 14 502.609 14C486.956 14 486.956 0 471.304 0C455.652 0 455.652 14 440.109 14C424.456 14 424.457 0 408.913 0C393.261 0 393.261 14 377.717 14C362.065 14 362.065 0 346.522 0C330.87 0 330.87 14 315.217 14C299.565 14 299.565 0 283.913 0C268.261 0 268.261 14 252.609 14C236.957 14 236.956 0 221.304 0C205.652 0 205.652 14 190 14C174.348 14 174.348 0 158.696 0C143.043 0 143.043 14 127.391 14C111.739 14 111.739 0 96.0869 0C80.4348 0 80.4348 14 64.8913 14C49.2391 14 49.2391 0 33.587 0C17.9348 0 17.9348 14 2.28261 14C-13.3696 14 -13.3696 0 -29.0217 0C-44.6739 0 -44.6739 14 -60.3261 14C-75.9783 14 -75.9783 0 -91.6304 0C-106.848 0 -106.848 14 -122.5 14C-138.152 14 -138.152 0 -153.696 0C-169.239 0 -169.348 14 -185 14V34H1065V14C1049.35 14 1049.35 0 1033.8 0Z" fill="white"/>
</svg>
